# xmcd
#
# Track frame offsets:
#	150
#	23990
#	59535
#	83906
#	112106
#	133431
#	173058
#	193307
#	218994
#	257566
#
# Disc length: 4268 seconds
#
# Revision: 1
# Processed by: cddbd v1.5.2PL0 Copyright (c) Steve Scherf et al.
# Submitted via: audiograbber 1.83.01
#
DISCID=9b10aa0a
DTITLE=Grateful Dead - 77-03-20 Winterland Arena, San Francisco CA
DYEAR=1900
DGENRE=
TTITLE0=New Minglewood Blues
TTITLE1=Ramble On Rose
TTITLE2=El Paso
TTITLE3=Deal
TTITLE4=Cassidy
TTITLE5=Peggy-O
TTITLE6=BIODTL
TTITLE7=Brown Eyed Women
TTITLE8=Estimated Prophet
TTITLE9=Scarlet Begonias
EXTD=
EXTT0=
EXTT1=
EXTT2=
EXTT3=
EXTT4=
EXTT5=
EXTT6=
EXTT7=
EXTT8=
EXTT9=
PLAYORDER=
